<svg id="Capa_1" data-name="Capa 1" xmlns="http://www.w3.org/2000/svg" viewBox="0 0 318.19 266.6"><defs><style>.cls-1,.cls-2,.cls-3,.cls-7,.cls-9{fill:none;stroke-miterlimit:10;}.cls-1,.cls-7,.cls-9{stroke:#fff;}.cls-1,.cls-2{stroke-width:25px;}.cls-2{stroke:#000;}.cls-3{stroke:#dc143c;stroke-width:13px;}.cls-4{fill:#d5dde0;}.cls-5{fill:#8f94aa;}.cls-6{fill:#dc143c;}.cls-7{stroke-width:5px;}.cls-8{fill:#fff;}</style></defs><title>logo gerardojao bordes blancos</title><g id="trazos"><path class="cls-1" d="M84.83,249.57c22.94,0,24.65,25.26,24.65,25.26l-.13,47.51c0,49.76,37,48.44,37,48.44H167" transform="translate(-84.55 -117.26)"/><path class="cls-1" d="M402.69,250.12c-11.47,0-18.23-6.82-22.12-13.64a38.61,38.61,0,0,1-4.93-19.09l-.08-39.67c0-49.76-32.16-47.38-32.16-47.38H326.14" transform="translate(-84.55 -117.26)"/><path class="cls-2" d="M84.83,249.57c22.94,0,23.65-24.85,23.65-24.85V177.07c0-49.76,35.65-47.29,35.65-47.29H166" transform="translate(-84.55 -117.26)"/><path class="cls-2" d="M84.83,249.57l54.68,1.21h6a16,16,0,0,0,16-16V224.09a12.31,12.31,0,0,0-12.31-12.31H133" transform="translate(-84.55 -117.26)"/><line class="cls-2" x1="315.59" y1="133.07" x2="241.59" y2="133.07"/><path class="cls-2" d="M402.74,250.45c-12.75,0-21.19,7.84-24.25,14.81a35.26,35.26,0,0,0-2.85,14.05l-.12,44.85c0,49.76-34.1,47.16-34.1,47.16l-17.27,0" transform="translate(-84.55 -117.26)"/><path class="cls-3" d="M84.83,248.44c22.94,0,23.65-24.85,23.65-24.85V175.94c0-49.76,35.65-47.29,35.65-47.29H166" transform="translate(-84.55 -117.26)"/><path class="cls-3" d="M84.83,248.44l54.68,1.21h6a16,16,0,0,0,16-16V223a12.31,12.31,0,0,0-12.31-12.31H133" transform="translate(-84.55 -117.26)"/><line class="cls-3" x1="315.59" y1="131.93" x2="241.59" y2="131.93"/><path class="cls-3" d="M402.74,249.32c-12.75,0-21.19,7.84-24.25,14.81a35.26,35.26,0,0,0-2.85,14.05L375.52,323c0,49.76-34.1,47.16-34.1,47.16l-17.27,0" transform="translate(-84.55 -117.26)"/><path d="M250.17,243h42.61c9.78,0,15.72,7.09,15.33,14.24a37.55,37.55,0,0,1-10.7,23.18c-3.11,3.11-8.21,4.82-14.36,4.82h0c-7.52,0-14-2.27-17.75-6.52-7.11-8-7.49-19.65-8.45-25.49-.51-3.11-2.2-5.48-6.67-5.48V243Z" transform="translate(-84.55 -117.26)"/><path d="M247.46,243H204.85c-9.78,0-15.72,7.09-15.32,14.24a37.55,37.55,0,0,0,10.7,23.18c3.11,3.11,8.21,4.82,14.36,4.82h0c7.52,0,14-2.27,17.75-6.52,7.11-8,7.49-19.65,8.45-25.49.51-3.11,2.2-5.48,6.67-5.48V243Z" transform="translate(-84.55 -117.26)"/><path d="M305.5,246.78a17.22,17.22,0,0,0-12.72-5.13H204.86a17.19,17.19,0,0,0-12.72,5.13c-1.29,1.36-6.66.49-6.66,1.72,0,6.47,2.55,6.81,2.7,8.83.26,3.37,1.46,3.83,1.85,3.83h49.65c4.26,0-1-12,9.14-12s4.88,12,9.14,12h49.65c.4,0,1.6-.46,1.85-3.83.15-2,2.7-2.36,2.7-8.83C312.16,247.27,306.78,248.14,305.5,246.78Z" transform="translate(-84.55 -117.26)"/><path class="cls-4" d="M214.57,283.72c-5.68,0-10.52-1.58-13.28-4.34-7.42-7.42-9.94-19.24-8.49-24.44,1.7-6.09,7-8.47,19.68-8.79,1.61,0,3.11-.06,4.52-.06,13.09,0,19.1,1.76,20.1,12.22a26.44,26.44,0,0,1-5.89,19.47c-2.93,3.56-9.61,5.94-16.64,5.94Z" transform="translate(-84.55 -117.26)"/><path class="cls-4" d="M283.05,283.72c5.68,0,10.52-1.58,13.28-4.34,7.42-7.42,9.94-19.24,8.49-24.44-1.7-6.09-7-8.47-19.68-8.79-1.61,0-3.11-.06-4.52-.06-13.09,0-19.1,1.76-20.1,12.22a26.44,26.44,0,0,0,5.89,19.47c2.94,3.56,9.62,5.94,16.64,5.94Z" transform="translate(-84.55 -117.26)"/><path class="cls-5" d="M262,265.22a291.38,291.38,0,0,0,41.78-4.39,15.4,15.4,0,0,0-.16-5.56c-1.29-4.61-4.84-7.53-18.51-7.88-1.6,0-3.09-.06-4.49-.06-14,0-18,2.39-18.86,11.1A24.58,24.58,0,0,0,262,265.22Z" transform="translate(-84.55 -117.26)"/><path class="cls-5" d="M235.61,265.22a291.38,291.38,0,0,1-41.78-4.39,15.4,15.4,0,0,1,.16-5.56c1.29-4.61,4.84-7.53,18.51-7.88,1.6,0,3.09-.06,4.49-.06,14,0,18,2.39,18.86,11.1A24.58,24.58,0,0,1,235.61,265.22Z" transform="translate(-84.55 -117.26)"/><rect class="cls-6" x="102.22" y="132.71" width="4.63" height="1.86"/><rect class="cls-6" x="221.68" y="132.71" width="4.63" height="1.86"/><path class="cls-7" d="M181.93,202.73s-2.58-26.88,8.19-47" transform="translate(-84.55 -117.26)"/><line class="cls-7" x1="164.88" y1="59.96" x2="164.88" y2="17.4"/><path class="cls-7" d="M240.43,177.22s-1.41-26.16,1.76-37.54" transform="translate(-84.55 -117.26)"/><path class="cls-7" d="M192,195.61s2.54-28.24,10.65-48.71" transform="translate(-84.55 -117.26)"/><path class="cls-7" d="M202.66,195.61s4.72-38.82,12.77-48.71" transform="translate(-84.55 -117.26)"/><path class="cls-7" d="M215.68,183.71s3.93-27.35,12.4-44" transform="translate(-84.55 -117.26)"/><path class="cls-7" d="M230.9,177.22s0-21.07,4.24-36.4" transform="translate(-84.55 -117.26)"/><path class="cls-7" d="M316.86,201.77s2.58-26.88-8.19-47" transform="translate(-84.55 -117.26)"/><path class="cls-7" d="M258.36,176.27s1.41-26.16-1.76-37.54" transform="translate(-84.55 -117.26)"/><path class="cls-7" d="M306.78,194.65s-2.54-28.24-10.65-48.71" transform="translate(-84.55 -117.26)"/><path class="cls-7" d="M296.12,192.65s-4.72-38.82-12.77-48.71" transform="translate(-84.55 -117.26)"/><path class="cls-7" d="M283.11,182.76s-3.93-27.35-12.4-44" transform="translate(-84.55 -117.26)"/><path class="cls-7" d="M267.89,176.27s0-21.07-4.24-36.4" transform="translate(-84.55 -117.26)"/><path class="cls-6" d="M249.11,360.51a88.29,88.29,0,0,1-23.43-3.25,79.71,79.71,0,0,1-22-9.85c-1.72-1.08-3.34-2.31-5-3.52L196.37,342c-.79-.65-1.53-1.36-2.29-2s-1.48-1.41-2.22-2.13-1.44-1.46-2.12-2.23-1.38-1.52-2-2.32l-1-1.19-1-1.28a40.19,40.19,0,0,1-5.81-11.48A42,42,0,0,1,178,306.6q0-23.4.85-46.8c.63-15.6,1.47-31.2,3.15-46.8,1.68,15.6,2.51,31.2,3.15,46.8s.86,31.2.85,46.8a34.9,34.9,0,0,0,5.93,19.81l.75,1.08.84,1.1c.55.74,1.13,1.46,1.73,2.16s1.19,1.42,1.82,2.1,1.23,1.39,1.9,2a74.65,74.65,0,0,0,8.36,7.41A87.42,87.42,0,0,0,227,353.58,128.06,128.06,0,0,0,249.11,360.51Z" transform="translate(-84.55 -117.26)"/><path class="cls-6" d="M248.89,360.51A127.06,127.06,0,0,0,271,353.57c1.75-.78,3.52-1.48,5.21-2.37.85-.43,1.71-.83,2.55-1.28l2.48-1.4,1.23-.7,1.2-.76,2.39-1.5c1.54-1.09,3.11-2.12,4.57-3.29a72,72,0,0,0,8.36-7.41,70.82,70.82,0,0,0,7.05-8.47,34.79,34.79,0,0,0,5.92-19.8q0-23.4.85-46.81c.63-15.6,1.47-31.2,3.15-46.81,1.68,15.6,2.51,31.2,3.15,46.81s.86,31.2.85,46.81a42.24,42.24,0,0,1-1.93,12.69,40,40,0,0,1-5.82,11.49,69.11,69.11,0,0,1-8.32,9.13c-1.49,1.4-3.08,2.69-4.66,4s-3.27,2.44-5,3.52a79.71,79.71,0,0,1-22,9.85A87.91,87.91,0,0,1,248.89,360.51Z" transform="translate(-84.55 -117.26)"/><path class="cls-8" d="M137.12,125.12A51.49,51.49,0,0,0,126,131.93a52.33,52.33,0,0,0-4.74,4.31c-.71.8-1.45,1.55-2.17,2.34l-1.95,2.52a10.19,10.19,0,0,0-.93,1.3l-.87,1.34-.89,1.33c-.28.45-.5.94-.77,1.4l-1.54,2.81c-.41,1-.84,2-1.29,2.95l-.66,1.48-.52,1.53-1.09,3.07c-.68,2.07-1.14,4.21-1.86,6.34,0-1.11.07-2.21.13-3.33,0-.56.07-1.11.11-1.67a11.68,11.68,0,0,1,.18-1.67l.64-3.3c.11-.55.22-1.1.35-1.65l.52-1.61c.34-1.07.7-2.15,1.08-3.21l1.44-3.08c.25-.51.48-1,.76-1.53l.9-1.45.92-1.44a11.33,11.33,0,0,1,1-1.4,37.84,37.84,0,0,1,9.9-9.28A31.39,31.39,0,0,1,137.12,125.12Z" transform="translate(-84.55 -117.26)"/><path class="cls-8" d="M137.12,253.24a36.85,36.85,0,0,0,10.33-1.51,20.74,20.74,0,0,0,8.49-5,23.26,23.26,0,0,0,5.28-8.4,61.42,61.42,0,0,0,2.72-10.17,27.79,27.79,0,0,1-.49,10.88A20.39,20.39,0,0,1,158,248.9a18.79,18.79,0,0,1-10,5.1A22.08,22.08,0,0,1,137.12,253.24Z" transform="translate(-84.55 -117.26)"/><path class="cls-8" d="M396.53,251.46a34.72,34.72,0,0,0-7.08,5.23,34.22,34.22,0,0,0-5.34,6.62c-.36.61-.68,1.24-1,1.86a13.59,13.59,0,0,0-.93,1.92c-.28.66-.62,1.29-.86,2s-.48,1.36-.74,2a9.67,9.67,0,0,0-.36,1c-.09.35-.18.71-.29,1.06l-.63,2.12c-.37,1.44-.64,2.9-1.1,4.38a38.57,38.57,0,0,1-.36-4.58l.16-2.3a13.82,13.82,0,0,1,.31-2.3c.15-.76.31-1.52.49-2.28a23.37,23.37,0,0,1,.75-2.23,26.37,26.37,0,0,1,2-4.26,23.4,23.4,0,0,1,6.42-6.87A18.39,18.39,0,0,1,396.53,251.46Z" transform="translate(-84.55 -117.26)"/><path class="cls-9" d="M358.76,396.18" transform="translate(-84.55 -117.26)"/><path class="cls-8" d="M344.29,370.14a15.66,15.66,0,0,0,5.43-.16,20.11,20.11,0,0,0,2.57-.64c.82-.35,1.66-.59,2.44-1a30.1,30.1,0,0,0,8.48-6.21c.32-.31.66-.59,1-.93l.88-1,1.79-2c1.07-1.45,2.24-2.84,3.3-4.32.52-.75,1-1.51,1.56-2.26s1.11-1.47,1.57-2.27c1-1.55,2-3.11,3.13-4.63-.52,1.8-1.18,3.55-1.83,5.32s-1.59,3.4-2.45,5.09a23,23,0,0,1-1.46,2.43l-1.57,2.38c-.59.75-1.21,1.48-1.82,2.22l-.93,1.1c-.32.36-.68.68-1,1a24.74,24.74,0,0,1-9.74,6.25,11.34,11.34,0,0,1-1.41.4c-.48.11-1,.24-1.43.32a20.46,20.46,0,0,1-2.92.19A12,12,0,0,1,344.29,370.14Z" transform="translate(-84.55 -117.26)"/></g></svg>